<svg id="Layer_1" data-name="Layer 1" xmlns="http://www.w3.org/2000/svg" viewBox="0 0 485.58 175.2"><defs><style>.cls-1{fill:#04c2c9;}.cls-2{fill:#fff;stroke:#04c2c9;stroke-miterlimit:10;stroke-width:0.75px;}</style></defs><title>logo</title><path class="cls-1" d="M482.17,300.79q.09.82-1.65,4.43t-5.15,10.57q-3.4,7-8.17,17.73t-9.63,23.72q-5.6,14.91-7.86,23.34T448.1,394.8c.34,3.08,2.28,5.59,5.8,7.56a92.37,92.37,0,0,0,10.37-12.28A161,161,0,0,0,474,374.61q4.69-8.46,10.66-21.27t10.55-23.5c-.25-.53-.51-1.06-.79-1.59a4.11,4.11,0,0,1-.47-1.35,19.13,19.13,0,0,1,.83-8.3,43.51,43.51,0,0,1,3.54-7.87q2.22-3.89,6.73-11a4.21,4.21,0,0,1,3.22-2.13c2.21-.25,3.47,1,3.79,3.86s-.33,7.4-1.95,13.71a176.75,176.75,0,0,1-7.77,22.48q-5.34,13-13.62,29.31t-19,34.21q-10.94,18.14-16.46,18.75-3.14.36-7.48-2.65a28.61,28.61,0,0,1-7.89-8.67,29.61,29.61,0,0,1-4.31-12.49,42.51,42.51,0,0,1,.53-10.61,131.91,131.91,0,0,1,3.62-15.85q2.64-9.3,6.26-18.49,3.77-9.66,6.73-16.07t6.74-14.24q3.78-7.85,3.7-8.5c-.1-.92-.77-1.31-2-1.17q-5.34.6-13.62,7.05a273.62,273.62,0,0,0-21.31,19.11c-3.31,3.24-5.38,5.33-6.24,6.26s-1.26,1.69-1.2,2.24c.09.74.71,1,1.88.91q.74-.09,4.91-1.12a53.23,53.23,0,0,1,6.67-1.31c2.76-.32,4.2,0,4.31,1s-.39,1.6-1.48,2.22a31.36,31.36,0,0,1-4.53,2l-7.92,3A78.64,78.64,0,0,0,409.27,358q-5.91,3.46-6.83,3.57a2,2,0,0,1-2.32-1.05,15.45,15.45,0,0,1-.89-4.19q-1.49-13.08,2-20.72T415.07,319a203.88,203.88,0,0,1,22.67-17.45,145.79,145.79,0,0,1,19.07-10.84q8.13-3.66,12.09-4.12t8.26,4.11A17.14,17.14,0,0,1,482.17,300.79Z" transform="translate(-398.79 -277.09)"/><path class="cls-1" d="M515.67,351.81q13.82-15.72,27.52-24.14t21.61-9.31a5.63,5.63,0,0,1,4.15,1.32,13.61,13.61,0,0,1,3.35,3.78,9.4,9.4,0,0,1,1.45,3.32,2.92,2.92,0,0,1-1.11,2.84,28.74,28.74,0,0,1-4.73,2.64l2.3,3.95q1.39,2.4,2.18,3.9a7.94,7.94,0,0,1,.92,2.72q.29,2.43-3.88,9.61c-2.78,4.8-4.7,8.31-5.78,10.56a14.27,14.27,0,0,0-1.11,7.91c.57,5,3.14,7.24,7.74,6.72s11.61-5.79,20.67-15.78l.7,6.18q-22.41,31.35-33.44,32.6-3.94.45-5.91-1.95c-1.31-1.59-2.15-4.08-2.53-7.45q-.91-8,3.15-23.84Q540,385.47,533.58,393.21t-11.06,8.28q-2.24.24-6-3.22a37.25,37.25,0,0,1-7.06-9.31,32.45,32.45,0,0,1-4-12.41,29.43,29.43,0,0,1,0-8.05,19.22,19.22,0,0,1,2.8-6.93A92.13,92.13,0,0,1,515.67,351.81Zm47.24-16.63q-25,15-35.2,24.7t-9.23,18.58a11.09,11.09,0,0,0,1.72,5.19,3.37,3.37,0,0,0,3.27,1.73,11.08,11.08,0,0,0,3.79-1.86A80.4,80.4,0,0,0,544.85,365Q552.52,353.9,562.91,335.18Z" transform="translate(-398.79 -277.09)"/><path class="cls-1" d="M634.13,358.64l.77,6.82q-16.38,27.71-28.45,29.07-6.54.75-11.08-6t-5.85-18.33q-1.07-9.39,1.89-22.85a162.33,162.33,0,0,1,8.88-27.6,166.64,166.64,0,0,1,12.76-25q6.86-10.8,13.22-15.54a9.44,9.44,0,0,1,4.15-2.15,2.51,2.51,0,0,1,2.77,1.41,18.76,18.76,0,0,1,1.31,5.78q1.44,12.81-6.86,32.65t-24.72,41.39a43.16,43.16,0,0,0-.09,7.47,16.74,16.74,0,0,0,3.62,9.3,8.14,8.14,0,0,0,7.47,2.89,9.2,9.2,0,0,0,4.77-2.36,50.19,50.19,0,0,0,5.12-5.11Q626.45,367.54,634.13,358.64ZM604.7,345.17a92.37,92.37,0,0,0,8-11.73,133.32,133.32,0,0,0,7-13.77,105.7,105.7,0,0,0,4.84-13c1.09-3.79,1.54-6.61,1.33-8.45-.16-1.42-.73-2.07-1.72-2a5.43,5.43,0,0,0-2,1.26q-5.1,5.24-10.59,19.44A108.1,108.1,0,0,0,604.7,345.17Z" transform="translate(-398.79 -277.09)"/><path class="cls-1" d="M648.53,361.4l.26,2.3c.41,3.63,1.62,6.35,3.63,8.18a8.92,8.92,0,0,0,7.35,2.25,23.42,23.42,0,0,0,9.12-3.18,51.07,51.07,0,0,0,9-6.71q4.39-4,10.64-10.72l.64,5.62q-9,13.71-17.37,21.42T654,389.34a15.52,15.52,0,0,1-13.72-4.89q-5.5-5.82-6.76-16.88a34.93,34.93,0,0,1,2.53-18.06q3.63-8.38,12.87-18.3a57.19,57.19,0,0,1,12.89-10.61,31.54,31.54,0,0,1,12-4.43,10.91,10.91,0,0,1,7.09,1.2,7.14,7.14,0,0,1,3.21,5.66q.66,5.81-3,12.05T669.18,348A136.6,136.6,0,0,1,648.53,361.4Zm.25-6.09a53,53,0,0,0,13.28-9.62,41,41,0,0,0,7.67-10.16c1.55-3.13,2.24-5.37,2.09-6.72s-.89-2.05-2.18-1.9q-1.65.18-5.15,2.73a44.82,44.82,0,0,0-6.93,6.38,41,41,0,0,0-6,8.79A26,26,0,0,0,648.78,355.31Z" transform="translate(-398.79 -277.09)"/><path class="cls-1" d="M748.75,329.81q-14.19,19.9-13.38,27,.45,4,3.67,3.59c1.79-.2,4-1.39,6.64-3.59s6.74-6,12.28-11.52l.72,6.36q-11.62,14.39-18,20.89t-10.78,7q-7.56.85-8.69-9.1a18.9,18.9,0,0,1,.27-5.9,38.69,38.69,0,0,1,1.86-6.23q1.26-3.27,3.93-9.41t6.17-13.9q-5,3.27-12,12.08a103.48,103.48,0,0,0-7.69,10.44q-3.09,4.88-6.57,10.82a77.06,77.06,0,0,1-5.16,8.05,5.48,5.48,0,0,1-3.61,2.32c-2,.23-4-1.63-6.13-5.55a38.48,38.48,0,0,1-4.12-14.1,22.09,22.09,0,0,1,.26-8.06,53.8,53.8,0,0,1,3.64-8.62q5.26-10.49,9.35-15.57t8.33-5.56a9.59,9.59,0,0,1,4.86.48,3.37,3.37,0,0,1,2.15,2.92,4.07,4.07,0,0,1-.33,2,11.35,11.35,0,0,1-1,2c-.4.6-1.24,1.79-2.54,3.55Q700.16,350,700.7,354.75c.2,1.79.89,2.61,2,2.48.74-.08,2-1.43,3.89-4s4.23-6,7.15-10.24a150.88,150.88,0,0,1,10.52-13.37,130,130,0,0,1,14.26-13.84q4.5-4,7.72-4.32c1-.12,2.1,1.13,3.36,3.72a24.64,24.64,0,0,1,2.36,8Q752.23,325.22,748.75,329.81Z" transform="translate(-398.79 -277.09)"/><path class="cls-1" d="M813,339.63l.7,6.18q-8.77,10.79-14.39,16.84a69.43,69.43,0,0,1-10.67,9.6,22,22,0,0,1-10.22,4.15,13.4,13.4,0,0,1-9.76-3,27.19,27.19,0,0,1-7.82-9.75,39.82,39.82,0,0,1-4-13.51,22.33,22.33,0,0,1,1.51-11.46q2.2-5.21,9.26-13.84a105.82,105.82,0,0,1,15.85-16.21q7.5-5.94,12.11-6.46a7.71,7.71,0,0,1,5.88,1.67,8,8,0,0,1,3,5.55c.22,2-.48,4.87-2.1,8.73a47.17,47.17,0,0,1-5.75,10.21c-2.21,3-4.06,4.52-5.53,4.69s-2.5-.59-2.69-2.31c0-.5,0-1,0-1.4s0-.86-.1-1.29c-.08-.74-.39-1.12-.92-1.16a2.58,2.58,0,0,0-1.81.91q-8.49,7.49-11.6,10.5a27.75,27.75,0,0,0-4.79,5.91,9.38,9.38,0,0,0-1.35,5.85,11.89,11.89,0,0,0,4.5,8.45,12.57,12.57,0,0,0,9.51,2.37q5.81-.64,13.46-6A153.3,153.3,0,0,0,813,339.63Z" transform="translate(-398.79 -277.09)"/><path class="cls-1" d="M855.45,338.28l-14.83,15.77q-10.56,11.55-14.51,12-3.6.4-8.49-7.39t-5.59-14a22,22,0,0,1,.6-9.07,63.85,63.85,0,0,1,4.51-10.08A127.38,127.38,0,0,1,826.42,311a78.69,78.69,0,0,1,8.17-9.46q3.61-3.43,5.19-3.62,2.49-.29,5.13,2a7.94,7.94,0,0,1,3,5.08c.14,1.17-.5,3.14-1.9,5.91a81.17,81.17,0,0,1-6.9,10.72,179.6,179.6,0,0,1-13.64,16l-1.18,5.27a6,6,0,0,0-.45,2.66,2.21,2.21,0,0,0,2.77,2.21q2.58-.3,11.38-7.91A154.25,154.25,0,0,0,856.64,320q3.84-4.83,6.32-8.47c1.66-2.42,3.14-4.69,4.46-6.8a48.8,48.8,0,0,1,3.33-4.81,4.76,4.76,0,0,1,2.54-1.87,3.47,3.47,0,0,1,3.81,1.52,13.27,13.27,0,0,1,2,6.4q.29,2.49-1.5,6.47t-6.86,13.66q-5.07,9.68-10,20t-9.85,23.1q.24-.31,5-6.17t10.14-12.26q5.34-6.39,8.82-10.28t8.77-9.16l.7,6.18q-10.93,14.76-19.67,27.88t-13.4,20.93l-5.46,9.12q-2.13,3.5-3.79,6.54a52.87,52.87,0,0,1-2.83,4.7c-.77,1.12-1.44,1.7-2,1.77-1.29.14-2.58-1-3.89-3.44a18.7,18.7,0,0,1-2.28-6.6,10.36,10.36,0,0,1,.48-4.81Q836.5,377.86,855.45,338.28Z" transform="translate(-398.79 -277.09)"/><polygon class="cls-2" points="399.95 102.16 90.86 144.2 195.79 174.81 214.17 170.37 153.02 151.33 399.95 102.16"/></svg>